<mxfile host="app.diagrams.net" agent="Mozilla/5.0 (Windows NT 10.0; Win64; x64) AppleWebKit/537.36 (KHTML, like Gecko) Chrome/129.0.0.0 Safari/537.36 Edg/129.0.0.0" version="24.7.16" pages="2">
  <diagram id="R2lEEEUBdFMjLlhIrx00" name="Page-1">
    <mxGraphModel dx="910" dy="408" grid="1" gridSize="10" guides="1" tooltips="1" connect="1" arrows="1" fold="1" page="1" pageScale="1" pageWidth="850" pageHeight="1100" math="0" shadow="0" extFonts="Permanent Marker^https://fonts.googleapis.com/css?family=Permanent+Marker">
      <root>
        <mxCell id="0" />
        <mxCell id="1" parent="0" />
        <mxCell id="fLYHL4tcDxd5EElu4zDd-1" value="&lt;font face=&quot;Times New Roman&quot;&gt;Users&lt;/font&gt;" style="rounded=0;whiteSpace=wrap;html=1;" parent="1" vertex="1">
          <mxGeometry x="140" y="180" width="120" height="60" as="geometry" />
        </mxCell>
        <mxCell id="fLYHL4tcDxd5EElu4zDd-2" value="&lt;font face=&quot;Times New Roman&quot;&gt;Room&lt;/font&gt;" style="rounded=0;whiteSpace=wrap;html=1;" parent="1" vertex="1">
          <mxGeometry x="570" y="165" width="120" height="60" as="geometry" />
        </mxCell>
        <mxCell id="fLYHL4tcDxd5EElu4zDd-4" value="&lt;font face=&quot;Times New Roman&quot;&gt;Booking&lt;/font&gt;" style="rounded=0;whiteSpace=wrap;html=1;" parent="1" vertex="1">
          <mxGeometry x="601.5" y="510" width="120" height="60" as="geometry" />
        </mxCell>
        <mxCell id="fLYHL4tcDxd5EElu4zDd-5" value="&lt;font face=&quot;Times New Roman&quot;&gt;name&lt;/font&gt;" style="ellipse;whiteSpace=wrap;html=1;" parent="1" vertex="1">
          <mxGeometry x="100" y="100" width="60" height="30" as="geometry" />
        </mxCell>
        <mxCell id="fLYHL4tcDxd5EElu4zDd-6" value="&lt;font face=&quot;Times New Roman&quot;&gt;address&lt;/font&gt;" style="ellipse;whiteSpace=wrap;html=1;" parent="1" vertex="1">
          <mxGeometry x="290" y="150" width="90" height="30" as="geometry" />
        </mxCell>
        <mxCell id="fLYHL4tcDxd5EElu4zDd-7" value="&lt;font face=&quot;Times New Roman&quot;&gt;email&lt;/font&gt;" style="ellipse;whiteSpace=wrap;html=1;" parent="1" vertex="1">
          <mxGeometry x="280" y="110" width="60" height="30" as="geometry" />
        </mxCell>
        <mxCell id="fLYHL4tcDxd5EElu4zDd-9" value="&lt;font face=&quot;Times New Roman&quot;&gt;username&lt;/font&gt;" style="ellipse;whiteSpace=wrap;html=1;" parent="1" vertex="1">
          <mxGeometry x="20" y="205" width="65" height="30" as="geometry" />
        </mxCell>
        <mxCell id="fLYHL4tcDxd5EElu4zDd-10" value="&lt;font face=&quot;Times New Roman&quot;&gt;password&lt;/font&gt;" style="ellipse;whiteSpace=wrap;html=1;" parent="1" vertex="1">
          <mxGeometry x="20" y="165" width="70" height="30" as="geometry" />
        </mxCell>
        <mxCell id="fLYHL4tcDxd5EElu4zDd-11" value="&lt;u&gt;&lt;font face=&quot;Times New Roman&quot;&gt;id&lt;/font&gt;&lt;/u&gt;" style="ellipse;whiteSpace=wrap;html=1;" parent="1" vertex="1">
          <mxGeometry x="40" y="130" width="60" height="20" as="geometry" />
        </mxCell>
        <mxCell id="fLYHL4tcDxd5EElu4zDd-16" value="&lt;font face=&quot;Times New Roman&quot;&gt;&lt;u&gt;id&lt;/u&gt;&lt;/font&gt;" style="ellipse;whiteSpace=wrap;html=1;" parent="1" vertex="1">
          <mxGeometry x="710" y="390" width="80" height="40" as="geometry" />
        </mxCell>
        <mxCell id="fLYHL4tcDxd5EElu4zDd-17" value="check_in" style="ellipse;whiteSpace=wrap;html=1;" parent="1" vertex="1">
          <mxGeometry x="763.75" y="440" width="77" height="40" as="geometry" />
        </mxCell>
        <mxCell id="fLYHL4tcDxd5EElu4zDd-18" value="&lt;font face=&quot;Times New Roman&quot;&gt;check_out&lt;/font&gt;" style="ellipse;whiteSpace=wrap;html=1;" parent="1" vertex="1">
          <mxGeometry x="770" y="500" width="80" height="40" as="geometry" />
        </mxCell>
        <mxCell id="fLYHL4tcDxd5EElu4zDd-19" value="&lt;font face=&quot;Times New Roman&quot;&gt;&lt;u&gt;id&lt;/u&gt;&lt;/font&gt;" style="ellipse;whiteSpace=wrap;html=1;" parent="1" vertex="1">
          <mxGeometry x="450" y="70" width="70" height="40" as="geometry" />
        </mxCell>
        <mxCell id="fLYHL4tcDxd5EElu4zDd-20" value="&lt;font face=&quot;Times New Roman&quot;&gt;price&lt;/font&gt;" style="ellipse;whiteSpace=wrap;html=1;" parent="1" vertex="1">
          <mxGeometry x="710" y="50" width="80" height="30" as="geometry" />
        </mxCell>
        <mxCell id="fLYHL4tcDxd5EElu4zDd-21" value="&lt;font face=&quot;Times New Roman&quot;&gt;room_no&lt;/font&gt;" style="ellipse;whiteSpace=wrap;html=1;" parent="1" vertex="1">
          <mxGeometry x="623" y="45" width="77" height="30" as="geometry" />
        </mxCell>
        <mxCell id="fLYHL4tcDxd5EElu4zDd-22" value="&lt;font face=&quot;Times New Roman&quot;&gt;room_type&lt;/font&gt;" style="ellipse;whiteSpace=wrap;html=1;" parent="1" vertex="1">
          <mxGeometry x="510" y="40" width="100" height="40" as="geometry" />
        </mxCell>
        <mxCell id="fLYHL4tcDxd5EElu4zDd-23" value="&lt;font face=&quot;Times New Roman&quot;&gt;is_available&lt;/font&gt;" style="ellipse;whiteSpace=wrap;html=1;" parent="1" vertex="1">
          <mxGeometry x="750.75" y="90" width="90" height="30" as="geometry" />
        </mxCell>
        <mxCell id="fLYHL4tcDxd5EElu4zDd-56" value="&lt;font face=&quot;Times New Roman&quot;&gt;Books&lt;/font&gt;" style="rhombus;whiteSpace=wrap;html=1;" parent="1" vertex="1">
          <mxGeometry x="400" y="340" width="80" height="80" as="geometry" />
        </mxCell>
        <mxCell id="fLYHL4tcDxd5EElu4zDd-62" value="&lt;font face=&quot;Times New Roman&quot;&gt;Views&lt;/font&gt;" style="rhombus;whiteSpace=wrap;html=1;" parent="1" vertex="1">
          <mxGeometry x="400" y="170" width="80" height="80" as="geometry" />
        </mxCell>
        <mxCell id="fLYHL4tcDxd5EElu4zDd-68" value="&lt;font face=&quot;Times New Roman&quot;&gt;phone_number&lt;/font&gt;" style="ellipse;whiteSpace=wrap;html=1;" parent="1" vertex="1">
          <mxGeometry x="170" y="95" width="100" height="35" as="geometry" />
        </mxCell>
        <mxCell id="BmfCAO9PKZx3MC8V4XvH-1" value="" style="endArrow=none;html=1;rounded=0;exitX=1;exitY=0;exitDx=0;exitDy=0;entryX=0;entryY=0.5;entryDx=0;entryDy=0;" parent="1" source="fLYHL4tcDxd5EElu4zDd-1" target="fLYHL4tcDxd5EElu4zDd-6" edge="1">
          <mxGeometry width="50" height="50" relative="1" as="geometry">
            <mxPoint x="320" y="290" as="sourcePoint" />
            <mxPoint x="370" y="240" as="targetPoint" />
          </mxGeometry>
        </mxCell>
        <mxCell id="BmfCAO9PKZx3MC8V4XvH-2" value="" style="endArrow=none;html=1;rounded=0;exitX=0.5;exitY=0;exitDx=0;exitDy=0;entryX=0.5;entryY=1;entryDx=0;entryDy=0;" parent="1" source="fLYHL4tcDxd5EElu4zDd-1" target="fLYHL4tcDxd5EElu4zDd-68" edge="1">
          <mxGeometry width="50" height="50" relative="1" as="geometry">
            <mxPoint x="180" y="180" as="sourcePoint" />
            <mxPoint x="210" y="135" as="targetPoint" />
          </mxGeometry>
        </mxCell>
        <mxCell id="BmfCAO9PKZx3MC8V4XvH-3" value="" style="endArrow=none;html=1;rounded=0;exitX=0.75;exitY=0;exitDx=0;exitDy=0;entryX=0;entryY=1;entryDx=0;entryDy=0;" parent="1" source="fLYHL4tcDxd5EElu4zDd-1" target="fLYHL4tcDxd5EElu4zDd-7" edge="1">
          <mxGeometry width="50" height="50" relative="1" as="geometry">
            <mxPoint x="280" y="200" as="sourcePoint" />
            <mxPoint x="310" y="155" as="targetPoint" />
          </mxGeometry>
        </mxCell>
        <mxCell id="BmfCAO9PKZx3MC8V4XvH-4" value="" style="endArrow=none;html=1;rounded=0;exitX=0.25;exitY=0;exitDx=0;exitDy=0;entryX=0.5;entryY=1;entryDx=0;entryDy=0;" parent="1" source="fLYHL4tcDxd5EElu4zDd-1" target="fLYHL4tcDxd5EElu4zDd-5" edge="1">
          <mxGeometry width="50" height="50" relative="1" as="geometry">
            <mxPoint x="150" y="170" as="sourcePoint" />
            <mxPoint x="180" y="125" as="targetPoint" />
          </mxGeometry>
        </mxCell>
        <mxCell id="BmfCAO9PKZx3MC8V4XvH-5" value="" style="endArrow=none;html=1;rounded=0;exitX=0;exitY=0;exitDx=0;exitDy=0;entryX=0.5;entryY=1;entryDx=0;entryDy=0;" parent="1" source="fLYHL4tcDxd5EElu4zDd-1" target="fLYHL4tcDxd5EElu4zDd-11" edge="1">
          <mxGeometry width="50" height="50" relative="1" as="geometry">
            <mxPoint x="180" y="190" as="sourcePoint" />
            <mxPoint x="140" y="140" as="targetPoint" />
          </mxGeometry>
        </mxCell>
        <mxCell id="BmfCAO9PKZx3MC8V4XvH-6" value="" style="endArrow=none;html=1;rounded=0;entryX=1;entryY=0.5;entryDx=0;entryDy=0;" parent="1" target="fLYHL4tcDxd5EElu4zDd-10" edge="1">
          <mxGeometry width="50" height="50" relative="1" as="geometry">
            <mxPoint x="140" y="200" as="sourcePoint" />
            <mxPoint x="150" y="150" as="targetPoint" />
          </mxGeometry>
        </mxCell>
        <mxCell id="BmfCAO9PKZx3MC8V4XvH-7" value="" style="endArrow=none;html=1;rounded=0;exitX=0;exitY=0.75;exitDx=0;exitDy=0;entryX=1;entryY=0.5;entryDx=0;entryDy=0;" parent="1" source="fLYHL4tcDxd5EElu4zDd-1" target="fLYHL4tcDxd5EElu4zDd-9" edge="1">
          <mxGeometry width="50" height="50" relative="1" as="geometry">
            <mxPoint x="200" y="210" as="sourcePoint" />
            <mxPoint x="160" y="160" as="targetPoint" />
          </mxGeometry>
        </mxCell>
        <mxCell id="BmfCAO9PKZx3MC8V4XvH-9" value="" style="endArrow=none;html=1;rounded=0;exitX=0;exitY=0;exitDx=0;exitDy=0;entryX=1;entryY=1;entryDx=0;entryDy=0;" parent="1" source="fLYHL4tcDxd5EElu4zDd-2" target="fLYHL4tcDxd5EElu4zDd-19" edge="1">
          <mxGeometry width="50" height="50" relative="1" as="geometry">
            <mxPoint x="550" y="160" as="sourcePoint" />
            <mxPoint x="510" y="110" as="targetPoint" />
          </mxGeometry>
        </mxCell>
        <mxCell id="BmfCAO9PKZx3MC8V4XvH-10" value="" style="endArrow=none;html=1;rounded=0;exitX=0.75;exitY=0;exitDx=0;exitDy=0;entryX=0;entryY=1;entryDx=0;entryDy=0;" parent="1" source="fLYHL4tcDxd5EElu4zDd-2" target="fLYHL4tcDxd5EElu4zDd-20" edge="1">
          <mxGeometry width="50" height="50" relative="1" as="geometry">
            <mxPoint x="731.5" y="150" as="sourcePoint" />
            <mxPoint x="681.5" y="89" as="targetPoint" />
          </mxGeometry>
        </mxCell>
        <mxCell id="BmfCAO9PKZx3MC8V4XvH-11" value="" style="endArrow=none;html=1;rounded=0;exitX=0.25;exitY=0;exitDx=0;exitDy=0;entryX=0.5;entryY=1;entryDx=0;entryDy=0;" parent="1" source="fLYHL4tcDxd5EElu4zDd-2" target="fLYHL4tcDxd5EElu4zDd-22" edge="1">
          <mxGeometry width="50" height="50" relative="1" as="geometry">
            <mxPoint x="610" y="161" as="sourcePoint" />
            <mxPoint x="560" y="100" as="targetPoint" />
          </mxGeometry>
        </mxCell>
        <mxCell id="BmfCAO9PKZx3MC8V4XvH-12" value="" style="endArrow=none;html=1;rounded=0;exitX=0.5;exitY=0;exitDx=0;exitDy=0;entryX=0.5;entryY=1;entryDx=0;entryDy=0;" parent="1" source="fLYHL4tcDxd5EElu4zDd-2" target="fLYHL4tcDxd5EElu4zDd-21" edge="1">
          <mxGeometry width="50" height="50" relative="1" as="geometry">
            <mxPoint x="590" y="195" as="sourcePoint" />
            <mxPoint x="540" y="134" as="targetPoint" />
          </mxGeometry>
        </mxCell>
        <mxCell id="BmfCAO9PKZx3MC8V4XvH-13" value="" style="endArrow=none;html=1;rounded=0;exitX=0;exitY=1;exitDx=0;exitDy=0;entryX=1;entryY=0;entryDx=0;entryDy=0;" parent="1" source="fLYHL4tcDxd5EElu4zDd-23" target="fLYHL4tcDxd5EElu4zDd-2" edge="1">
          <mxGeometry width="50" height="50" relative="1" as="geometry">
            <mxPoint x="750" y="176" as="sourcePoint" />
            <mxPoint x="700" y="115" as="targetPoint" />
          </mxGeometry>
        </mxCell>
        <mxCell id="BmfCAO9PKZx3MC8V4XvH-18" value="" style="endArrow=none;html=1;rounded=0;exitX=0;exitY=0.75;exitDx=0;exitDy=0;entryX=1;entryY=0.5;entryDx=0;entryDy=0;" parent="1" source="fLYHL4tcDxd5EElu4zDd-2" target="fLYHL4tcDxd5EElu4zDd-62" edge="1">
          <mxGeometry width="50" height="50" relative="1" as="geometry">
            <mxPoint x="532" y="195" as="sourcePoint" />
            <mxPoint x="490" y="260" as="targetPoint" />
          </mxGeometry>
        </mxCell>
        <mxCell id="BmfCAO9PKZx3MC8V4XvH-19" value="" style="endArrow=none;html=1;rounded=0;exitX=0;exitY=0.5;exitDx=0;exitDy=0;entryX=1;entryY=0.5;entryDx=0;entryDy=0;" parent="1" source="fLYHL4tcDxd5EElu4zDd-62" target="fLYHL4tcDxd5EElu4zDd-1" edge="1">
          <mxGeometry width="50" height="50" relative="1" as="geometry">
            <mxPoint x="580" y="220" as="sourcePoint" />
            <mxPoint x="490" y="220" as="targetPoint" />
          </mxGeometry>
        </mxCell>
        <mxCell id="BmfCAO9PKZx3MC8V4XvH-25" value="" style="endArrow=none;html=1;rounded=0;exitX=0;exitY=0.5;exitDx=0;exitDy=0;entryX=1;entryY=0.25;entryDx=0;entryDy=0;" parent="1" source="fLYHL4tcDxd5EElu4zDd-18" target="fLYHL4tcDxd5EElu4zDd-4" edge="1">
          <mxGeometry width="50" height="50" relative="1" as="geometry">
            <mxPoint x="798" y="450" as="sourcePoint" />
            <mxPoint x="720" y="510" as="targetPoint" />
          </mxGeometry>
        </mxCell>
        <mxCell id="BmfCAO9PKZx3MC8V4XvH-26" value="" style="endArrow=none;html=1;rounded=0;entryX=0.75;entryY=0;entryDx=0;entryDy=0;exitX=0.5;exitY=1;exitDx=0;exitDy=0;" parent="1" source="fLYHL4tcDxd5EElu4zDd-17" target="fLYHL4tcDxd5EElu4zDd-4" edge="1">
          <mxGeometry width="50" height="50" relative="1" as="geometry">
            <mxPoint x="725" y="430" as="sourcePoint" />
            <mxPoint x="637" y="510" as="targetPoint" />
          </mxGeometry>
        </mxCell>
        <mxCell id="BmfCAO9PKZx3MC8V4XvH-27" value="" style="endArrow=none;html=1;rounded=0;entryX=0.5;entryY=0;entryDx=0;entryDy=0;exitX=0.5;exitY=1;exitDx=0;exitDy=0;" parent="1" source="fLYHL4tcDxd5EElu4zDd-16" target="fLYHL4tcDxd5EElu4zDd-4" edge="1">
          <mxGeometry width="50" height="50" relative="1" as="geometry">
            <mxPoint x="378" y="500" as="sourcePoint" />
            <mxPoint x="290" y="580" as="targetPoint" />
          </mxGeometry>
        </mxCell>
        <mxCell id="BmfCAO9PKZx3MC8V4XvH-30" value="" style="endArrow=none;html=1;rounded=0;entryX=0;entryY=0.75;entryDx=0;entryDy=0;exitX=0.5;exitY=1;exitDx=0;exitDy=0;" parent="1" target="fLYHL4tcDxd5EElu4zDd-4" edge="1" source="fLYHL4tcDxd5EElu4zDd-56">
          <mxGeometry width="50" height="50" relative="1" as="geometry">
            <mxPoint x="440" y="430" as="sourcePoint" />
            <mxPoint x="310" y="600" as="targetPoint" />
            <Array as="points">
              <mxPoint x="440" y="555" />
            </Array>
          </mxGeometry>
        </mxCell>
        <mxCell id="rIPB2zGvpNcosHAhXYTp-1" value="1" style="text;html=1;strokeColor=none;fillColor=none;align=center;verticalAlign=middle;whiteSpace=wrap;rounded=0;" parent="1" vertex="1">
          <mxGeometry x="260" y="185" width="40" height="20" as="geometry" />
        </mxCell>
        <mxCell id="rIPB2zGvpNcosHAhXYTp-2" value="M" style="text;html=1;strokeColor=none;fillColor=none;align=center;verticalAlign=middle;whiteSpace=wrap;rounded=0;" parent="1" vertex="1">
          <mxGeometry x="510" y="185" width="40" height="20" as="geometry" />
        </mxCell>
        <mxCell id="rIPB2zGvpNcosHAhXYTp-4" value="M" style="text;html=1;strokeColor=none;fillColor=none;align=center;verticalAlign=middle;whiteSpace=wrap;rounded=0;" parent="1" vertex="1">
          <mxGeometry x="540" y="530" width="40" height="20" as="geometry" />
        </mxCell>
        <mxCell id="xUq2yvBSmd-1U9rwPhvT-5" value="&lt;font face=&quot;Times New Roman&quot;&gt;status&lt;/font&gt;" style="ellipse;whiteSpace=wrap;html=1;" parent="1" vertex="1">
          <mxGeometry x="760" y="155" width="71.5" height="40" as="geometry" />
        </mxCell>
        <mxCell id="xUq2yvBSmd-1U9rwPhvT-6" value="" style="endArrow=none;html=1;rounded=0;exitX=0;exitY=0.5;exitDx=0;exitDy=0;entryX=1;entryY=0.5;entryDx=0;entryDy=0;" parent="1" source="xUq2yvBSmd-1U9rwPhvT-5" target="fLYHL4tcDxd5EElu4zDd-2" edge="1">
          <mxGeometry width="50" height="50" relative="1" as="geometry">
            <mxPoint x="760" y="160" as="sourcePoint" />
            <mxPoint x="700" y="190" as="targetPoint" />
          </mxGeometry>
        </mxCell>
        <mxCell id="xUq2yvBSmd-1U9rwPhvT-15" value="total_amount" style="ellipse;whiteSpace=wrap;html=1;" parent="1" vertex="1">
          <mxGeometry x="780" y="560" width="80" height="30" as="geometry" />
        </mxCell>
        <mxCell id="xUq2yvBSmd-1U9rwPhvT-16" value="&lt;font face=&quot;Times New Roman&quot;&gt;status&lt;/font&gt;" style="ellipse;whiteSpace=wrap;html=1;" parent="1" vertex="1">
          <mxGeometry x="730" y="610" width="80" height="40" as="geometry" />
        </mxCell>
        <mxCell id="xUq2yvBSmd-1U9rwPhvT-18" value="" style="endArrow=none;html=1;rounded=0;exitX=0;exitY=0.5;exitDx=0;exitDy=0;entryX=1;entryY=0.75;entryDx=0;entryDy=0;" parent="1" source="xUq2yvBSmd-1U9rwPhvT-15" target="fLYHL4tcDxd5EElu4zDd-4" edge="1">
          <mxGeometry width="50" height="50" relative="1" as="geometry">
            <mxPoint x="773" y="545" as="sourcePoint" />
            <mxPoint x="740" y="560" as="targetPoint" />
          </mxGeometry>
        </mxCell>
        <mxCell id="xUq2yvBSmd-1U9rwPhvT-19" value="" style="endArrow=none;html=1;rounded=0;exitX=0;exitY=0;exitDx=0;exitDy=0;entryX=0.75;entryY=1;entryDx=0;entryDy=0;" parent="1" source="xUq2yvBSmd-1U9rwPhvT-16" target="fLYHL4tcDxd5EElu4zDd-4" edge="1">
          <mxGeometry width="50" height="50" relative="1" as="geometry">
            <mxPoint x="800" y="540" as="sourcePoint" />
            <mxPoint x="767" y="555" as="targetPoint" />
          </mxGeometry>
        </mxCell>
        <mxCell id="IlOnFfMFa660focGQdXx-1" value="" style="endArrow=none;html=1;rounded=0;exitX=0;exitY=0.5;exitDx=0;exitDy=0;entryX=0.5;entryY=1;entryDx=0;entryDy=0;" edge="1" parent="1" source="fLYHL4tcDxd5EElu4zDd-56" target="fLYHL4tcDxd5EElu4zDd-1">
          <mxGeometry width="50" height="50" relative="1" as="geometry">
            <mxPoint x="410" y="220" as="sourcePoint" />
            <mxPoint x="270" y="220" as="targetPoint" />
            <Array as="points">
              <mxPoint x="200" y="380" />
            </Array>
          </mxGeometry>
        </mxCell>
        <mxCell id="IlOnFfMFa660focGQdXx-2" value="1" style="text;html=1;strokeColor=none;fillColor=none;align=center;verticalAlign=middle;whiteSpace=wrap;rounded=0;" vertex="1" parent="1">
          <mxGeometry x="210" y="250" width="40" height="20" as="geometry" />
        </mxCell>
        <mxCell id="IlOnFfMFa660focGQdXx-3" value="" style="endArrow=none;html=1;rounded=0;exitX=0.25;exitY=0;exitDx=0;exitDy=0;entryX=0.5;entryY=1;entryDx=0;entryDy=0;" edge="1" parent="1" source="fLYHL4tcDxd5EElu4zDd-4" target="fLYHL4tcDxd5EElu4zDd-2">
          <mxGeometry width="50" height="50" relative="1" as="geometry">
            <mxPoint x="810" y="365" as="sourcePoint" />
            <mxPoint x="610" y="225" as="targetPoint" />
            <Array as="points">
              <mxPoint x="630" y="365" />
            </Array>
          </mxGeometry>
        </mxCell>
        <mxCell id="IlOnFfMFa660focGQdXx-4" value="1" style="text;html=1;strokeColor=none;fillColor=none;align=center;verticalAlign=middle;whiteSpace=wrap;rounded=0;" vertex="1" parent="1">
          <mxGeometry x="623" y="240" width="40" height="20" as="geometry" />
        </mxCell>
        <mxCell id="IlOnFfMFa660focGQdXx-5" value="M" style="text;html=1;strokeColor=none;fillColor=none;align=center;verticalAlign=middle;whiteSpace=wrap;rounded=0;" vertex="1" parent="1">
          <mxGeometry x="630" y="480" width="40" height="20" as="geometry" />
        </mxCell>
      </root>
    </mxGraphModel>
  </diagram>
  <diagram id="hUpse5ehj6FRnO1Fl-fh" name="Page-2">
    <mxGraphModel dx="951" dy="412" grid="1" gridSize="10" guides="1" tooltips="1" connect="1" arrows="1" fold="1" page="1" pageScale="1" pageWidth="827" pageHeight="1169" math="0" shadow="0">
      <root>
        <mxCell id="0" />
        <mxCell id="1" parent="0" />
      </root>
    </mxGraphModel>
  </diagram>
</mxfile>
